RBDS001runT45_grf
version=1
nRows=24
nColumns=19
inDegrees=no
endheader
time	ground_force_r_vx	ground_force_r_vy	ground_force_r_vz	ground_force_r_px	ground_force_r_py	ground_force_r_pz	ground_torque_r_x	ground_torque_r_y	ground_torque_r_z	ground_force_l_vx	ground_force_l_vy	ground_force_l_vz	ground_force_l_px	ground_force_l_py	ground_force_l_pz	ground_torque_l_x	ground_torque_l_y	ground_torque_l_z
      7.50000000	      0.00000000	      0.00000000	      0.00000000	      0.00000000	      0.00000000	      0.00000000	      0.00000000	      0.00000000	      0.00000000	   -216.98482547	   1231.71520921	    -42.47808325	      2.47701283	      0.00000000	      1.01322272	      0.06038030	     -2.05096719	      0.49620781
      7.50333333	      0.00000000	      0.00000000	      0.00000000	      0.00000000	      0.00000000	      0.00000000	      0.00000000	      0.00000000	      0.00000000	   -218.57654137	   1290.84487381	    -49.16194398	      2.51688372	      0.00000000	      1.01955101	      0.26943778	     -2.68768221	      0.54596047
      7.50666667	      0.00000000	      0.00000000	      0.00000000	      0.00000000	      0.00000000	      0.00000000	      0.00000000	      0.00000000	      0.00000000	   -217.79815580	   1344.14179759	    -54.31231146	      2.47485630	      0.00000000	      1.02405399	      0.43965421	     -3.15966819	      0.58329168
      7.51000000	      0.00000000	      0.00000000	      0.00000000	      0.00000000	      0.00000000	      0.00000000	      0.00000000	      0.00000000	      0.00000000	   -214.64138562	   1391.75676948	    -57.73430748	      2.48152714	      0.00000000	      1.01968325	      0.56252149	     -3.42350761	      0.60376806
      7.51333333	      0.00000000	      0.00000000	      0.00000000	      0.00000000	      0.00000000	      0.00000000	      0.00000000	      0.00000000	      0.00000000	   -209.14575855	   1433.90202760	    -59.36077876	      2.44506654	      0.00000000	      1.02161035	      0.63492100	     -3.45458158	      0.60550514
      7.51666667	      0.00000000	      0.00000000	      0.00000000	      0.00000000	      0.00000000	      0.00000000	      0.00000000	      0.00000000	      0.00000000	   -201.37391444	   1470.80030166	    -59.22728656	      2.42369983	      0.00000000	      1.01116669	      0.65919566	     -3.24934511	      0.58911538
      7.52000000	      0.00000000	      0.00000000	      0.00000000	      0.00000000	      0.00000000	      0.00000000	      0.00000000	      0.00000000	      0.00000000	   -191.41178165	   1502.65347902	    -57.48374487	      2.43579918	      0.00000000	      1.01791060	      0.64185171	     -2.82322422	      0.55730491
      7.52333333	      0.00000000	      0.00000000	      0.00000000	      0.00000000	      0.00000000	      0.00000000	      0.00000000	      0.00000000	      0.00000000	   -179.38145056	   1529.62963409	    -54.39045728	      2.40276449	      0.00000000	      1.01987278	      0.59150869	     -2.20294931	      0.51406468
      7.52666667	      0.00000000	      0.00000000	      0.00000000	      0.00000000	      0.00000000	      0.00000000	      0.00000000	      0.00000000	      0.00000000	   -165.44620444	   1551.86247237	    -50.26311146	      2.41085046	      0.00000000	      1.01604431	      0.51758461	     -1.42092113	      0.46365107
      7.53000000	      0.00000000	      0.00000000	      0.00000000	      0.00000000	      0.00000000	      0.00000000	      0.00000000	      0.00000000	      0.00000000	   -149.80434566	   1569.45952890	    -45.43356467	      2.37468178	      0.00000000	      1.01738868	      0.43036374	     -0.51623523	      0.41008691
      7.53333333	      0.00000000	      0.00000000	      0.00000000	      0.00000000	      0.00000000	      0.00000000	      0.00000000	      0.00000000	      0.00000000	   -132.67452089	   1582.50995232	    -40.23627788	      2.36077418	      0.00000000	      1.01480738	      0.33983188	      0.47124101	      0.35670580
      7.53666667	      0.00000000	      0.00000000	      0.00000000	      0.00000000	      0.00000000	      0.00000000	      0.00000000	      0.00000000	      0.00000000	   -114.27921015	   1591.08575495	    -34.97849585	      2.37444776	      0.00000000	      1.01032165	      0.25422638	      1.50601164	      0.30568232
      7.54000000	      0.00000000	      0.00000000	      0.00000000	      0.00000000	      0.00000000	      0.00000000	      0.00000000	      0.00000000	      0.00000000	    -94.82290631	   1595.25072719	    -29.91325686	      2.32595928	      0.00000000	      1.00590757	      0.18029007	      2.55442828	      0.25805971
      7.54333333	      0.00000000	      0.00000000	      0.00000000	      0.00000000	      0.00000000	      0.00000000	      0.00000000	      0.00000000	      0.00000000	    -74.47811693	   1595.07055521	    -25.24894508	      2.33471900	      0.00000000	      1.00838516	      0.12377394	      3.58439347	      0.21401052
      7.54666667	      0.00000000	      0.00000000	      0.00000000	      0.00000000	      0.00000000	      0.00000000	      0.00000000	      0.00000000	      0.00000000	    -53.38721868	   1590.61345076	    -21.16161987	      2.31560001	      0.00000000	      1.01053459	      0.08931793	      4.56465601	      0.17308158
      7.55000000	      0.00000000	      0.00000000	      0.00000000	      0.00000000	      0.00000000	      0.00000000	      0.00000000	      0.00000000	      0.00000000	    -31.67738648	   1581.94254203	    -17.77874980	      2.30133571	      0.00000000	      1.00559166	      0.07995599	      5.46706780	      0.13459171
      7.55333333	      0.00000000	      0.00000000	      0.00000000	      0.00000000	      0.00000000	      0.00000000	      0.00000000	      0.00000000	      0.00000000	     -9.48270082	   1569.10310223	    -15.17206122	      2.30271624	      0.00000000	      1.01275017	      0.09679224	      6.27309541	      0.09797255
      7.55666667	      0.00000000	      0.00000000	      0.00000000	      0.00000000	      0.00000000	      0.00000000	      0.00000000	      0.00000000	      0.00000000	     13.04208546	   1552.11491291	    -13.37174363	      2.26273892	      0.00000000	      1.00920103	      0.13948077	      6.97273443	      0.06279317
      7.56000000	      0.00000000	      0.00000000	      0.00000000	      0.00000000	      0.00000000	      0.00000000	      0.00000000	      0.00000000	      0.00000000	     35.71052175	   1530.97223185	    -12.36613770	      2.27210624	      0.00000000	      1.00907224	      0.20664587	      7.56088367	      0.02879710
      7.56333333	      0.00000000	      0.00000000	      0.00000000	      0.00000000	      0.00000000	      0.00000000	      0.00000000	      0.00000000	      0.00000000	     58.30152505	   1505.65134559	    -12.09753472	      2.23107644	      0.00000000	      1.00800432	      0.29566739	      8.03574093	     -0.00398820
      7.56666667	      0.00000000	      0.00000000	      0.00000000	      0.00000000	      0.00000000	      0.00000000	      0.00000000	      0.00000000	      0.00000000	     80.57084222	   1476.12481664	    -12.48000341	      2.24054625	      0.00000000	      1.00425273	      0.40279938	      8.39757972	     -0.03541003
      7.57000000	      0.00000000	      0.00000000	      0.00000000	      0.00000000	      0.00000000	      0.00000000	      0.00000000	      0.00000000	      0.00000000	    102.25873884	   1442.37635095	    -13.41877509	      2.20399259	      0.00000000	      1.00653440	      0.52379152	      8.65093582	     -0.06540298
      7.57333333	      0.00000000	      0.00000000	      0.00000000	      0.00000000	      0.00000000	      0.00000000	      0.00000000	      0.00000000	      0.00000000	    123.09592949	   1404.41213546	    -14.81739071	      2.19906156	      0.00000000	      1.00614872	      0.65419032	      8.80268245	     -0.09397707
      7.57666667	      0.00000000	      0.00000000	      0.00000000	      0.00000000	      0.00000000	      0.00000000	      0.00000000	      0.00000000	      0.00000000	    142.81223494	   1362.27183165	    -16.58425681	      2.20983089	      0.00000000	      1.01060887	      0.78955382	      8.85877819	     -0.12124887
